<svg width="72" height="66" viewBox="0 0 72 66" fill="none" xmlns="http://www.w3.org/2000/svg">
<path d="M17.9641 16.2223C17.2394 16.5626 16.8767 17.1932 16.8719 18.1251L18.6064 63.9535C18.6722 64.8432 19.0672 65.1271 19.7919 64.7868L31.0693 59.4917C31.8605 59.1202 32.2233 58.4896 32.1614 57.589L31.6311 43.3885L31.6285 43.3446L31.0656 31.4969L31.0361 31.5108L30.712 24.0545L30.0737 10.5275L17.968 16.2115L17.9641 16.2223Z" fill="white"/>
<path d="M54.4525 4.18833C55.0289 5.4159 55.3589 7.00286 55.435 8.95267L55.9354 22.1474C56.0116 24.0972 55.9453 25.7438 55.7511 27.0986C55.546 28.4494 55.1441 29.6309 54.5379 30.6466C53.9392 31.6588 53.0909 32.5625 52.004 33.3616C50.9246 34.1573 49.5381 34.9527 47.8372 35.7513L33.2765 42.588L32.7136 30.7403L32.3674 23.2945L31.8092 11.5529C31.7593 10.4663 32.3615 9.46147 33.3451 8.99967L46.3159 2.90943C50.4349 0.975415 53.1509 1.39693 54.4599 4.18485L54.4525 4.18833Z" fill="white"/>
</svg>
